<?xml version="1.0" encoding="UTF-8"?>
<!DOCTYPE svg PUBLIC "-//W3C//DTD SVG 1.1//EN" "http://www.w3.org/Graphics/SVG/1.1/DTD/svg11.dtd">
<!-- Creator: CorelDRAW 2018 (64-Bit) -->
<svg xmlns="http://www.w3.org/2000/svg" xml:space="preserve" width="5.4123mm" height="35.3666mm" version="1.1" style="shape-rendering:geometricPrecision; text-rendering:geometricPrecision; image-rendering:optimizeQuality; fill-rule:evenodd; clip-rule:evenodd"
viewBox="0 0 541.22 3536.59"
 xmlns:xlink="http://www.w3.org/1999/xlink">
 <defs>
  <style type="text/css">
   <![CDATA[
    .fil0 {fill:#949BA5;fill-rule:nonzero}
   ]]>
  </style>
 </defs>
 <g id="Слой_x0020_1">
  <metadata id="CorelCorpID_0Corel-Layer"/>
  <path class="fil0" d="M475.54 0l-46.56 2508.2 -329.21 0 -43.23 -2508.2 419 0zm-204.52 3536.59c-74.82,0 -138.84,-26.6 -191.21,-78.15 -53.21,-52.37 -79.82,-115.56 -79.82,-190.38 0,-73.99 26.61,-138.01 79.82,-191.22 52.37,-52.37 116.39,-78.98 191.21,-78.98 72.33,0 136.35,26.61 189.55,78.98 54.04,53.21 80.65,117.23 80.65,191.22 0,74.82 -26.61,138.01 -80.65,190.38 -53.2,51.55 -117.22,78.15 -189.55,78.15z"/>
 </g>
</svg>
