<?xml version="1.0" encoding="UTF-8"?>
<!DOCTYPE svg PUBLIC "-//W3C//DTD SVG 1.1//EN" "http://www.w3.org/Graphics/SVG/1.1/DTD/svg11.dtd">
<!-- Creator: CorelDRAW 2018 (64-Bit) -->
<svg xmlns="http://www.w3.org/2000/svg" xml:space="preserve" width="27.0862mm" height="5.4788mm" version="1.1" style="shape-rendering:geometricPrecision; text-rendering:geometricPrecision; image-rendering:optimizeQuality; fill-rule:evenodd; clip-rule:evenodd"
viewBox="0 0 2708.62 547.88"
 xmlns:xlink="http://www.w3.org/1999/xlink">
 <defs>
  <style type="text/css">
   <![CDATA[
    .fil0 {fill:#949BA5;fill-rule:nonzero}
   ]]>
  </style>
 </defs>
 <g id="Слой_x0020_1">
  <metadata id="CorelCorpID_0Corel-Layer"/>
  <path class="fil0" d="M270.2 547.88c-74.83,0 -138.01,-26.61 -191.22,-79.81 -52.38,-54.04 -78.98,-118.06 -78.98,-192.88 0,-74.83 26.6,-138.84 78.98,-193.71 53.21,-54.04 116.39,-81.48 191.22,-81.48 76.48,0 141.33,27.44 195.37,81.48 53.21,54.87 79.81,118.88 79.81,193.71 0,74.82 -26.6,138.84 -79.81,192.88 -54.04,53.2 -118.89,79.81 -195.37,79.81zm1081.62 0c-74.83,0 -138.01,-26.61 -191.22,-79.81 -52.38,-54.04 -78.98,-118.06 -78.98,-192.88 0,-74.83 26.6,-138.84 78.98,-193.71 53.21,-54.04 116.39,-81.48 191.22,-81.48 76.48,0 141.33,27.44 195.37,81.48 53.21,54.87 79.81,118.88 79.81,193.71 0,74.82 -26.6,138.84 -79.81,192.88 -54.04,53.2 -118.89,79.81 -195.37,79.81zm1081.62 0c-74.83,0 -138.01,-26.61 -191.22,-79.81 -52.38,-54.04 -78.98,-118.06 -78.98,-192.88 0,-74.83 26.6,-138.84 78.98,-193.71 53.21,-54.04 116.39,-81.48 191.22,-81.48 76.48,0 141.33,27.44 195.37,81.48 53.21,54.87 79.81,118.88 79.81,193.71 0,74.82 -26.6,138.84 -79.81,192.88 -54.04,53.2 -118.89,79.81 -195.37,79.81z"/>
 </g>
</svg>
