<?xml version="1.0" encoding="UTF-8"?>
<!DOCTYPE svg PUBLIC "-//W3C//DTD SVG 1.1//EN" "http://www.w3.org/Graphics/SVG/1.1/DTD/svg11.dtd">
<!-- Creator: CorelDRAW X8 -->
<svg xmlns="http://www.w3.org/2000/svg" xml:space="preserve" width="169.943mm" height="124.658mm" version="1.1" style="shape-rendering:geometricPrecision; text-rendering:geometricPrecision; image-rendering:optimizeQuality; fill-rule:evenodd; clip-rule:evenodd"
viewBox="0 0 16928 12417"
 xmlns:xlink="http://www.w3.org/1999/xlink">
 <defs>
  <style type="text/css">
   <![CDATA[
    .fil0 {fill:white}
   ]]>
  </style>
 </defs>
 <g id="Слой_x0020_1">
  <metadata id="CorelCorpID_0Corel-Layer"/>
  <path class="fil0" d="M13530 7474c47,186 114,1668 65,1835 -51,173 -239,451 -340,659 -393,810 -349,1271 -1305,1700 -297,133 -763,247 -1136,396 -120,48 -297,93 -208,240 75,68 371,-93 594,-171 744,-262 1055,-265 1638,-847 250,-250 380,-739 541,-1094 207,-456 457,-673 457,-1231 -1,-442 -66,-901 -79,-1361 -7,-229 -147,-427 -424,-308 -478,205 -449,1316 -336,1400 278,205 78,-435 187,-833 50,-182 137,-424 346,-385zm-7477 90c0,415 333,918 755,1371 627,672 1430,1222 1656,1222 226,0 1028,-550 1656,-1222 422,-453 755,-956 755,-1371 0,-316 -128,-602 -335,-808 -207,-207 -493,-335 -808,-335 -265,0 -500,90 -689,212 -262,170 -418,452 -458,511 -40,58 -72,96 -121,96 -49,0 -96,-59 -121,-97 -26,-38 -204,-342 -467,-512l-6 -4c-186,-119 -415,-206 -674,-206 -316,0 -601,128 -808,335 -207,206 -335,492 -335,808zm573 1540c-460,-493 -822,-1053 -822,-1540 0,-384 156,-733 408,-984 252,-252 600,-408 984,-408 311,0 586,105 808,246 2,2 5,3 7,5 196,127 350,285 451,426 99,-141 252,-299 446,-424 225,-145 506,-253 824,-253 384,0 732,156 984,408 252,251 408,600 408,984 0,487 -362,1047 -822,1540 -669,716 -1565,1302 -1838,1302 -273,0 -1170,-586 -1838,-1302zm8177 -4097l-2362 905c-117,97 -41,250 139,217l2359 -907c133,-114 21,-256 -136,-215zm-8339 -1334c111,-116 -27,-315 -142,-565l-487 -1116c-59,-140 -161,-513 -351,-393 -138,88 70,433 122,552l491 1115c70,165 145,519 367,407zm5175 -3628c-210,-127 -245,39 -317,215 -93,225 -582,1233 -524,1342 36,68 128,96 202,44 59,-41 89,-150 120,-220 126,-286 559,-1201 519,-1381zm-1081 2094c-59,29 -36,-50 -132,186 -82,200 -575,1253 -559,1359 13,87 110,129 193,90 91,-42 343,-706 411,-865 66,-154 126,-301 192,-445 29,-64 88,-172 75,-240 -18,-97 -95,-127 -180,-85zm1032 2124c-114,71 -751,808 -924,1004 -50,57 -136,121 -129,213 10,118 113,143 211,87 59,-35 256,-274 309,-338l607 -677c1,-1 246,-221 42,-303 -112,-45 -104,7 -116,14zm-3311 297c85,-147 65,-1037 66,-1310 0,-83 11,-140 -36,-195 -40,-47 -117,-63 -179,-22 -109,74 -68,676 -71,844 -7,501 -93,761 220,683zm-4508 -1016c-174,114 81,274 151,335l619 557c56,55 244,274 379,195 207,-122 -229,-420 -463,-632 -95,-87 -216,-189 -315,-274 -96,-82 -222,-278 -371,-181zm-3700 936c-275,179 328,335 472,387 142,52 654,292 769,216 264,-177 -386,-352 -497,-392 -142,-51 -630,-286 -744,-211zm4737 -4312c-160,75 45,407 104,546 61,141 166,514 348,434 172,-75 -45,-429 -100,-557 -55,-129 -152,-518 -352,-423zm-2863 5079c-180,182 237,273 384,327 137,51 473,219 570,137 230,-195 -353,-334 -647,-448 -227,-89 -232,-92 -307,-16zm13983 -499c167,22 708,-189 892,-277 115,-55 159,-188 26,-239 -92,-36 -482,132 -585,173 -234,91 -456,95 -333,343zm-7802 -3070c-85,123 -60,355 -65,541 -4,131 -59,502 187,388 127,-59 86,-366 90,-524 7,-238 93,-446 -212,-405zm4284 1754c-16,8 -434,376 -395,519 85,309 465,-212 503,-252 175,-188 95,-384 -108,-267zm-6504 2150c110,-161 6,-215 -122,-335 -456,-426 -640,-199 -273,122 203,176 229,244 395,213zm-2497 1882c512,-5 345,1128 374,1195 53,119 160,62 191,-32 35,-103 32,-462 20,-580 -29,-289 -175,-755 -502,-783 -440,-38 -309,609 -341,937 -137,1388 -50,1002 410,2001 316,687 315,1086 1075,1514 450,254 937,333 1418,536 425,180 318,-65 216,-123 -224,-126 -698,-253 -964,-341 -755,-252 -1101,-530 -1365,-1212 -432,-1110 -687,-1021 -622,-1915 15,-213 51,-1074 90,-1197zm9647 1795c24,231 -294,530 -439,813 -74,146 -140,302 -250,388 -49,39 -167,89 -198,117 -196,179 147,307 454,-93 91,-119 147,-278 226,-412 104,-175 475,-581 419,-826 -36,-156 -229,-231 -415,-209 -345,41 -665,616 -1064,878 -1164,765 -2398,636 -2909,2230 -93,290 99,367 179,138 63,-179 85,-282 180,-455 374,-683 718,-854 1411,-1139 1224,-504 1166,-503 1959,-1278 127,-124 216,-220 447,-152zm-9144 6c293,-227 562,540 1465,1016 1047,550 1800,532 2324,1556 89,173 113,285 177,459 73,196 272,145 179,-137 -553,-1663 -1825,-1504 -2902,-2240 -507,-347 -708,-826 -1059,-879 -211,-31 -409,63 -433,221 -37,240 331,663 435,840 83,141 129,286 231,408 312,373 621,233 444,73 -185,-168 -149,77 -462,-517 -90,-173 -407,-582 -429,-685 -36,-160 3,-91 30,-115zm93 -3323c-144,-85 -775,-351 -620,-13 10,21 671,462 620,13z"/>
 </g>
</svg>
