<?xml version="1.0" encoding="UTF-8"?>
<!DOCTYPE svg PUBLIC "-//W3C//DTD SVG 1.1//EN" "http://www.w3.org/Graphics/SVG/1.1/DTD/svg11.dtd">
<!-- Creator: CorelDRAW X8 -->
<svg xmlns="http://www.w3.org/2000/svg" xml:space="preserve" width="700px" height="990px" version="1.1" style="shape-rendering:geometricPrecision; text-rendering:geometricPrecision; image-rendering:optimizeQuality; fill-rule:evenodd; clip-rule:evenodd"
viewBox="0 0 700 990"
 xmlns:xlink="http://www.w3.org/1999/xlink">
 <defs>
  <style type="text/css">
   <![CDATA[
    .fil0 {fill:white}
   ]]>
  </style>
 </defs>
 <g id="Слой_x0020_1">
  <metadata id="CorelCorpID_0Corel-Layer"/>
  <path class="fil0" d="M518 479c2,6 4,56 3,61 -2,6 -8,15 -12,22 -13,27 -11,43 -43,57 -10,5 -26,9 -38,14 -4,1 -10,3 -7,8 2,2 12,-4 19,-6 25,-9 36,-9 55,-29 9,-8 13,-24 18,-36 7,-15 16,-23 16,-41 0,-15 -3,-30 -3,-46 0,-8 -5,-14 -14,-10 -16,7 -15,44 -11,47 9,7 2,-15 6,-28 1,-6 4,-14 11,-13zm-250 3c0,14 11,31 25,46 21,22 48,41 56,41 7,0 34,-19 55,-41 14,-15 26,-32 26,-46 0,-11 -5,-20 -12,-27 -7,-7 -16,-11 -27,-11 -9,0 -16,3 -23,7 -9,5 -14,15 -15,17 -1,2 -2,3 -4,3 -2,0 -3,-2 -4,-3 -1,-1 -7,-12 -16,-17l0 0c-6,-4 -14,-7 -23,-7 -10,0 -20,4 -27,11 -7,7 -11,16 -11,27zm19 51c-15,-16 -27,-35 -27,-51 0,-13 5,-25 14,-33 8,-8 20,-14 32,-14 11,0 20,4 27,9 1,0 1,0 1,0 6,4 11,9 15,14 3,-5 8,-10 15,-14 7,-5 17,-9 27,-9 13,0 25,6 33,14 9,8 14,20 14,33 0,16 -12,35 -28,51 -22,24 -52,44 -61,44 -9,0 -39,-20 -62,-44zm274 -137l-79 31c-4,3 -1,8 5,7l79 -30c4,-4 0,-9 -5,-8zm-279 -44c4,-4 -1,-11 -5,-19l-16 -38c-2,-4 -5,-17 -12,-13 -4,3 2,15 4,19l17 37c2,6 5,17 12,14zm173 -122c-7,-4 -8,2 -10,7 -4,8 -20,42 -18,45 1,3 4,4 7,2 2,-2 3,-5 4,-7 4,-10 18,-41 17,-47zm-36 70c-2,1 -1,-1 -4,7 -3,6 -20,42 -19,45 0,3 4,4 6,3 3,-1 12,-24 14,-29 2,-5 4,-10 6,-15 1,-2 3,-6 3,-8 -1,-3 -3,-4 -6,-3zm34 71c-3,3 -25,27 -30,34 -2,2 -5,4 -5,7 1,4 4,5 7,3 2,-1 9,-9 11,-11l20 -23c0,0 8,-7 1,-10 -3,-2 -3,0 -4,0zm-110 10c3,-5 2,-34 2,-43 0,-3 0,-5 -1,-7 -2,-2 -4,-2 -6,-1 -4,3 -3,23 -3,29 0,16 -3,25 8,22zm-151 -34c-6,4 3,10 5,12l21 18c1,2 8,9 12,7 7,-4 -7,-14 -15,-21 -3,-3 -7,-7 -11,-10 -3,-2 -7,-9 -12,-6zm-124 32c-9,6 11,11 16,13 5,1 22,9 26,7 8,-6 -13,-12 -17,-13 -5,-2 -21,-10 -25,-7zm159 -145c-6,3 1,14 3,19 2,4 6,17 12,14 5,-2 -2,-14 -4,-18 -2,-5 -5,-18 -11,-15zm-96 170c-6,6 8,10 13,11 4,2 15,8 19,5 7,-7 -12,-11 -22,-15 -8,-3 -8,-3 -10,-1zm468 -16c5,0 23,-7 30,-10 3,-1 5,-6 0,-8 -3,-1 -16,5 -19,6 -8,3 -15,3 -11,12zm-261 -103c-3,4 -2,12 -3,18 0,4 -2,17 7,13 4,-2 3,-12 3,-17 0,-8 3,-15 -7,-14zm143 59c-1,0 -15,12 -13,17 3,10 15,-7 17,-8 5,-7 3,-13 -4,-9zm-218 72c4,-6 0,-8 -4,-12 -15,-14 -21,-6 -9,4 7,6 8,9 13,8zm-83 63c17,-1 11,37 12,40 2,4 6,2 7,-1 1,-4 1,-16 0,-20 -1,-10 -6,-25 -16,-26 -15,-1 -11,20 -12,31 -4,47 -2,34 14,67 10,23 10,37 36,51 15,8 31,11 47,18 14,6 11,-2 7,-4 -7,-5 -23,-9 -32,-12 -25,-8 -37,-17 -45,-40 -15,-37 -23,-34 -21,-64 0,-7 1,-36 3,-40zm323 60c0,7 -10,17 -15,27 -3,5 -5,10 -9,13 -1,1 -5,3 -6,4 -7,6 5,10 15,-3 3,-4 5,-10 8,-14 3,-6 16,-20 14,-28 -2,-5 -8,-8 -14,-7 -12,2 -22,21 -36,30 -39,25 -80,21 -97,74 -3,10 3,13 6,5 2,-6 3,-10 6,-15 12,-23 24,-29 47,-39 41,-16 39,-16 66,-42 4,-4 7,-8 15,-5zm-306 0c9,-8 18,18 49,34 35,18 60,18 77,52 3,6 4,9 6,15 3,7 9,5 6,-4 -18,-56 -61,-51 -97,-75 -17,-12 -24,-28 -35,-30 -7,-1 -14,2 -15,8 -1,8 11,22 15,28 3,5 4,9 8,13 10,13 20,8 14,3 -6,-6 -5,2 -15,-17 -3,-6 -14,-20 -14,-23 -2,-6 0,-3 1,-4zm3 -111c-5,-3 -26,-12 -21,-1 0,1 22,16 21,1z"/>
 </g>
</svg>
